<svg id="visual" viewBox="0 0 980 412" width="980" height="412" xmlns="http://www.w3.org/2000/svg" xmlns:xlink="http://www.w3.org/1999/xlink" version="1.1"><g stroke-width="1" stroke-linejoin="bevel"><path d="M535.4 240L436.6 323L550.4 292Z" fill="#5e4948" stroke="#5e4948"></path><path d="M535.4 240L423.6 190L436.6 323Z" fill="#362c31" stroke="#362c31"></path><path d="M310.7 412L444.6 412L436.6 323Z" fill="#68514d" stroke="#68514d"></path><path d="M436.6 323L540.4 412L550.4 292Z" fill="#715951" stroke="#715951"></path><path d="M444.6 412L540.4 412L436.6 323Z" fill="#231f23" stroke="#231f23"></path><path d="M540.4 412L613.3 349L550.4 292Z" fill="#362c31" stroke="#362c31"></path><path d="M550.4 292L672.3 237L535.4 240Z" fill="#544143" stroke="#544143"></path><path d="M423.6 190L335.7 273L436.6 323Z" fill="#1a181b" stroke="#1a181b"></path><path d="M535.4 240L458.6 132L423.6 190Z" fill="#5e4948" stroke="#5e4948"></path><path d="M423.6 190L355.7 177L335.7 273Z" fill="#5e4948" stroke="#5e4948"></path><path d="M574.4 125L458.6 132L535.4 240Z" fill="#403337" stroke="#403337"></path><path d="M458.6 132L355.7 177L423.6 190Z" fill="#362c31" stroke="#362c31"></path><path d="M672.3 237L574.4 125L535.4 240Z" fill="#1a181b" stroke="#1a181b"></path><path d="M613.3 349L672.3 237L550.4 292Z" fill="#68514d" stroke="#68514d"></path><path d="M540.4 412L662.3 412L613.3 349Z" fill="#2c252a" stroke="#2c252a"></path><path d="M613.3 349L725.2 309L672.3 237Z" fill="#544143" stroke="#544143"></path><path d="M335.7 273L310.7 412L436.6 323Z" fill="#7a6256" stroke="#7a6256"></path><path d="M662.3 412L725.2 309L613.3 349Z" fill="#403337" stroke="#403337"></path><path d="M725.2 309L723.2 241L672.3 237Z" fill="#544143" stroke="#544143"></path><path d="M672.3 237L672.3 95L574.4 125Z" fill="#7a6256" stroke="#7a6256"></path><path d="M437.6 0L335.7 77L458.6 132Z" fill="#1a181b" stroke="#1a181b"></path><path d="M458.6 132L335.7 77L355.7 177Z" fill="#5e4948" stroke="#5e4948"></path><path d="M355.7 177L235.8 172L335.7 273Z" fill="#5e4948" stroke="#5e4948"></path><path d="M183.8 334L214.8 412L310.7 412Z" fill="#715951" stroke="#715951"></path><path d="M723.2 241L672.3 95L672.3 237Z" fill="#68514d" stroke="#68514d"></path><path d="M574.4 125L516.4 0L458.6 132Z" fill="#7a6256" stroke="#7a6256"></path><path d="M335.7 77L235.8 172L355.7 177Z" fill="#362c31" stroke="#362c31"></path><path d="M650.3 0L516.4 0L574.4 125Z" fill="#231f23" stroke="#231f23"></path><path d="M516.4 0L437.6 0L458.6 132Z" fill="#403337" stroke="#403337"></path><path d="M183.8 334L310.7 412L335.7 273Z" fill="#2c252a" stroke="#2c252a"></path><path d="M235.8 172L183.8 334L335.7 273Z" fill="#544143" stroke="#544143"></path><path d="M437.6 0L336.7 0L335.7 77Z" fill="#68514d" stroke="#68514d"></path><path d="M335.7 77L206.8 62L235.8 172Z" fill="#4a3a3d" stroke="#4a3a3d"></path><path d="M672.3 95L650.3 0L574.4 125Z" fill="#362c31" stroke="#362c31"></path><path d="M782.2 0L650.3 0L672.3 95Z" fill="#5e4948" stroke="#5e4948"></path><path d="M662.3 412L797.2 412L725.2 309Z" fill="#362c31" stroke="#362c31"></path><path d="M906.1 323L867.1 177L723.2 241Z" fill="#2c252a" stroke="#2c252a"></path><path d="M723.2 241L787.2 85L672.3 95Z" fill="#231f23" stroke="#231f23"></path><path d="M242.8 0L206.8 62L335.7 77Z" fill="#231f23" stroke="#231f23"></path><path d="M75.9 207L92.9 339L183.8 334Z" fill="#403337" stroke="#403337"></path><path d="M867.1 177L787.2 85L723.2 241Z" fill="#544143" stroke="#544143"></path><path d="M336.7 0L242.8 0L335.7 77Z" fill="#1a181b" stroke="#1a181b"></path><path d="M906.1 323L723.2 241L725.2 309Z" fill="#715951" stroke="#715951"></path><path d="M75.9 207L183.8 334L235.8 172Z" fill="#362c31" stroke="#362c31"></path><path d="M183.8 334L103.9 412L214.8 412Z" fill="#544143" stroke="#544143"></path><path d="M92.9 339L103.9 412L183.8 334Z" fill="#403337" stroke="#403337"></path><path d="M875.1 104L782.2 0L787.2 85Z" fill="#403337" stroke="#403337"></path><path d="M787.2 85L782.2 0L672.3 95Z" fill="#2c252a" stroke="#2c252a"></path><path d="M74.9 75L235.8 172L206.8 62Z" fill="#1a181b" stroke="#1a181b"></path><path d="M74.9 75L75.9 207L235.8 172Z" fill="#1a181b" stroke="#1a181b"></path><path d="M797.2 412L906.1 323L725.2 309Z" fill="#544143" stroke="#544143"></path><path d="M980 118L875.1 104L867.1 177Z" fill="#403337" stroke="#403337"></path><path d="M867.1 177L875.1 104L787.2 85Z" fill="#7a6256" stroke="#7a6256"></path><path d="M797.2 412L894.1 412L906.1 323Z" fill="#544143" stroke="#544143"></path><path d="M81.9 0L74.9 75L206.8 62Z" fill="#403337" stroke="#403337"></path><path d="M75.9 207L0 284L92.9 339Z" fill="#715951" stroke="#715951"></path><path d="M92.9 339L0 412L103.9 412Z" fill="#7a6256" stroke="#7a6256"></path><path d="M0 176L0 284L75.9 207Z" fill="#715951" stroke="#715951"></path><path d="M242.8 0L81.9 0L206.8 62Z" fill="#715951" stroke="#715951"></path><path d="M74.9 75L0 176L75.9 207Z" fill="#7a6256" stroke="#7a6256"></path><path d="M980 412L980 300L906.1 323Z" fill="#1a181b" stroke="#1a181b"></path><path d="M906.1 323L980 218L867.1 177Z" fill="#4a3a3d" stroke="#4a3a3d"></path><path d="M980 300L980 218L906.1 323Z" fill="#2c252a" stroke="#2c252a"></path><path d="M875.1 104L906.1 0L782.2 0Z" fill="#5e4948" stroke="#5e4948"></path><path d="M0 71L0 176L74.9 75Z" fill="#68514d" stroke="#68514d"></path><path d="M0 284L0 412L92.9 339Z" fill="#7a6256" stroke="#7a6256"></path><path d="M980 118L906.1 0L875.1 104Z" fill="#715951" stroke="#715951"></path><path d="M894.1 412L980 412L906.1 323Z" fill="#5e4948" stroke="#5e4948"></path><path d="M980 218L980 118L867.1 177Z" fill="#231f23" stroke="#231f23"></path><path d="M0 0L0 71L74.9 75Z" fill="#544143" stroke="#544143"></path><path d="M81.9 0L0 0L74.9 75Z" fill="#1a181b" stroke="#1a181b"></path><path d="M980 118L980 0L906.1 0Z" fill="#403337" stroke="#403337"></path></g></svg>