<svg id="visual" viewBox="0 0 980 412" width="980" height="412" xmlns="http://www.w3.org/2000/svg" xmlns:xlink="http://www.w3.org/1999/xlink" version="1.1"><path d="M0 22L82 22L82 26L163 26L163 0L245 0L245 63L327 63L327 46L408 46L408 63L490 63L490 50L572 50L572 59L653 59L653 0L735 0L735 38L817 38L817 46L898 46L898 50L980 50L980 34L980 0L980 0L898 0L898 0L817 0L817 0L735 0L735 0L653 0L653 0L572 0L572 0L490 0L490 0L408 0L408 0L327 0L327 0L245 0L245 0L163 0L163 0L82 0L82 0L0 0Z" fill="#bccccc"></path><path d="M0 75L82 75L82 26L163 26L163 5L245 5L245 75L327 75L327 79L408 79L408 108L490 108L490 104L572 104L572 79L653 79L653 13L735 13L735 71L817 71L817 83L898 83L898 83L980 83L980 34L980 32L980 48L898 48L898 44L817 44L817 36L735 36L735 0L653 0L653 57L572 57L572 48L490 48L490 61L408 61L408 44L327 44L327 61L245 61L245 0L163 0L163 24L82 24L82 20L0 20Z" fill="#b1ceca"></path><path d="M0 158L82 158L82 92L163 92L163 92L245 92L245 100L327 100L327 96L408 96L408 174L490 174L490 158L572 158L572 112L653 112L653 26L735 26L735 79L817 79L817 141L898 141L898 96L980 96L980 75L980 32L980 81L898 81L898 81L817 81L817 69L735 69L735 11L653 11L653 77L572 77L572 102L490 102L490 106L408 106L408 77L327 77L327 73L245 73L245 3L163 3L163 24L82 24L82 73L0 73Z" fill="#a8d0c4"></path><path d="M0 207L82 207L82 207L163 207L163 116L245 116L245 186L327 186L327 211L408 211L408 186L490 186L490 236L572 236L572 116L653 116L653 112L735 112L735 129L817 129L817 166L898 166L898 149L980 149L980 186L980 73L980 94L898 94L898 139L817 139L817 77L735 77L735 24L653 24L653 110L572 110L572 156L490 156L490 172L408 172L408 94L327 94L327 98L245 98L245 90L163 90L163 90L82 90L82 156L0 156Z" fill="#a4d1ba"></path><path d="M0 211L82 211L82 269L163 269L163 153L245 153L245 261L327 261L327 215L408 215L408 232L490 232L490 256L572 256L572 125L653 125L653 195L735 195L735 162L817 162L817 219L898 219L898 158L980 158L980 252L980 184L980 147L898 147L898 164L817 164L817 127L735 127L735 110L653 110L653 114L572 114L572 234L490 234L490 184L408 184L408 209L327 209L327 184L245 184L245 114L163 114L163 205L82 205L82 205L0 205Z" fill="#a5d1ad"></path><path d="M0 380L82 380L82 322L163 322L163 326L245 326L245 380L327 380L327 351L408 351L408 306L490 306L490 322L572 322L572 355L653 355L653 351L735 351L735 265L817 265L817 380L898 380L898 351L980 351L980 331L980 250L980 156L898 156L898 217L817 217L817 160L735 160L735 193L653 193L653 123L572 123L572 254L490 254L490 230L408 230L408 213L327 213L327 259L245 259L245 151L163 151L163 267L82 267L82 209L0 209Z" fill="#aad09d"></path><path d="M0 413L82 413L82 413L163 413L163 413L245 413L245 413L327 413L327 413L408 413L408 413L490 413L490 413L572 413L572 413L653 413L653 413L735 413L735 413L817 413L817 413L898 413L898 413L980 413L980 413L980 329L980 349L898 349L898 378L817 378L817 263L735 263L735 349L653 349L653 353L572 353L572 320L490 320L490 304L408 304L408 349L327 349L327 378L245 378L245 324L163 324L163 320L82 320L82 378L0 378Z" fill="#b5ce8d"></path></svg>